<svg xmlns="http://www.w3.org/2000/svg" style="display:none" fill="none" stroke="currentColor" stroke-width="1.75" stroke-linecap="round" stroke-linejoin="round">
  <symbol id="i-home" viewBox="0 0 24 24"><path d="M3 11l9-8 9 8"/><path d="M5 10v10a1 1 0 0 0 1 1h4v-6h4v6h4a1 1 0 0 0 1-1V10"/></symbol>
  <symbol id="i-dashboard" viewBox="0 0 24 24"><rect x="3" y="3" width="7.5" height="9" rx="1.5"/><rect x="13.5" y="3" width="7.5" height="5.5" rx="1.5"/><rect x="13.5" y="12" width="7.5" height="9" rx="1.5"/><rect x="3" y="15.5" width="7.5" height="5.5" rx="1.5"/></symbol>
  <symbol id="i-calendar" viewBox="0 0 24 24"><rect x="3" y="5" width="18" height="16" rx="2"/><path d="M3 10h18"/><path d="M8 3v4"/><path d="M16 3v4"/></symbol>
  <symbol id="i-calendar-check" viewBox="0 0 24 24"><rect x="3" y="5" width="18" height="16" rx="2"/><path d="M3 10h18"/><path d="M8 3v4"/><path d="M16 3v4"/><path d="M9 15l2 2 4-4"/></symbol>
  <symbol id="i-calendar-plus" viewBox="0 0 24 24"><rect x="3" y="5" width="18" height="16" rx="2"/><path d="M3 10h18"/><path d="M8 3v4"/><path d="M16 3v4"/><path d="M12 13v6"/><path d="M9 16h6"/></symbol>
  <symbol id="i-organization" viewBox="0 0 24 24"><rect x="3" y="14" width="5" height="7" rx="1"/><rect x="16" y="14" width="5" height="7" rx="1"/><rect x="9.5" y="3" width="5" height="7" rx="1"/><path d="M12 10v2"/><path d="M5.5 14v-1a1 1 0 0 1 1-1h11a1 1 0 0 1 1 1v1"/></symbol>
  <symbol id="i-users" viewBox="0 0 24 24"><circle cx="9" cy="8" r="3.5"/><path d="M2.5 20.5v-1a5 5 0 0 1 5-5h3a5 5 0 0 1 5 5v1"/><path d="M16 4.5a3.5 3.5 0 0 1 0 7"/><path d="M21.5 20.5v-1a5 5 0 0 0-3-4.58"/></symbol>
  <symbol id="i-reports" viewBox="0 0 24 24"><path d="M3 21h18"/><rect x="4.5" y="13" width="3.5" height="8" rx="0.5"/><rect x="10.25" y="9" width="3.5" height="12" rx="0.5"/><rect x="16" y="5" width="3.5" height="16" rx="0.5"/></symbol>
  <symbol id="i-cloud" viewBox="0 0 24 24"><path d="M17.5 19H7a4.5 4.5 0 0 1-.5-9 5.5 5.5 0 0 1 10.62 1.5A4 4 0 0 1 17.5 19z"/></symbol>
  <symbol id="i-authorization" viewBox="0 0 24 24"><path d="M12 2L4 5v6c0 5 3.5 8.5 8 10 4.5-1.5 8-5 8-10V5l-8-3z"/><path d="M9 12l2 2 4-4"/></symbol>
  <symbol id="i-settings" viewBox="0 0 24 24"><circle cx="12" cy="12" r="3"/><path d="M12 2v3"/><path d="M12 19v3"/><path d="M4.93 4.93l2.12 2.12"/><path d="M16.95 16.95l2.12 2.12"/><path d="M2 12h3"/><path d="M19 12h3"/><path d="M4.93 19.07l2.12-2.12"/><path d="M16.95 7.05l2.12-2.12"/></symbol>
  <symbol id="i-search" viewBox="0 0 24 24"><circle cx="11" cy="11" r="7"/><path d="M20.5 20.5L16.5 16.5"/></symbol>
  <symbol id="i-bell" viewBox="0 0 24 24"><path d="M6 9a6 6 0 1 1 12 0c0 7 3 9 3 9H3s3-2 3-9z"/><path d="M10 21a2 2 0 0 0 4 0"/></symbol>
  <symbol id="i-bell-dot" viewBox="0 0 24 24"><path d="M6 9a6 6 0 0 1 10.18-4.3"/><path d="M18 9c0 7 3 9 3 9H3s3-2 3-9"/><path d="M10 21a2 2 0 0 0 4 0"/><circle cx="19" cy="5" r="2.5" fill="currentColor" stroke="none"/></symbol>
  <symbol id="i-menu" viewBox="0 0 24 24"><path d="M3 6h18"/><path d="M3 12h18"/><path d="M3 18h18"/></symbol>
  <symbol id="i-chevron-up" viewBox="0 0 24 24"><polyline points="6 15 12 9 18 15"/></symbol>
  <symbol id="i-chevron-down" viewBox="0 0 24 24"><polyline points="6 9 12 15 18 9"/></symbol>
  <symbol id="i-chevron-left" viewBox="0 0 24 24"><polyline points="15 6 9 12 15 18"/></symbol>
  <symbol id="i-chevron-right" viewBox="0 0 24 24"><polyline points="9 6 15 12 9 18"/></symbol>
  <symbol id="i-chevrons-left" viewBox="0 0 24 24"><polyline points="11 6 5 12 11 18"/><polyline points="18 6 12 12 18 18"/></symbol>
  <symbol id="i-chevrons-right" viewBox="0 0 24 24"><polyline points="13 6 19 12 13 18"/><polyline points="6 6 12 12 6 18"/></symbol>
  <symbol id="i-arrow-up" viewBox="0 0 24 24"><path d="M12 19V5"/><polyline points="5 12 12 5 19 12"/></symbol>
  <symbol id="i-arrow-down" viewBox="0 0 24 24"><path d="M12 5v14"/><polyline points="5 12 12 19 19 12"/></symbol>
  <symbol id="i-arrow-left" viewBox="0 0 24 24"><path d="M19 12H5"/><polyline points="12 5 5 12 12 19"/></symbol>
  <symbol id="i-arrow-right" viewBox="0 0 24 24"><path d="M5 12h14"/><polyline points="12 5 19 12 12 19"/></symbol>
  <symbol id="i-external-link" viewBox="0 0 24 24"><path d="M14 4h6v6"/><path d="M10 14L20 4"/><path d="M19 14v5a1 1 0 0 1-1 1H5a1 1 0 0 1-1-1V6a1 1 0 0 1 1-1h5"/></symbol>
  <symbol id="i-sort-vertical" viewBox="0 0 24 24"><path d="M8 4v16"/><polyline points="4 8 8 4 12 8"/><path d="M16 20V4"/><polyline points="12 16 16 20 20 16"/></symbol>
  <symbol id="i-plus" viewBox="0 0 24 24"><path d="M12 5v14"/><path d="M5 12h14"/></symbol>
  <symbol id="i-plus-circle" viewBox="0 0 24 24"><circle cx="12" cy="12" r="10"/><path d="M12 8v8"/><path d="M8 12h8"/></symbol>
  <symbol id="i-edit" viewBox="0 0 24 24"><path d="M11 4H5a2 2 0 0 0-2 2v13a2 2 0 0 0 2 2h13a2 2 0 0 0 2-2v-6"/><path d="M18.5 2.5a2.121 2.121 0 0 1 3 3L12 15l-4 1 1-4 9.5-9.5z"/></symbol>
  <symbol id="i-trash" viewBox="0 0 24 24"><path d="M3 6h18"/><path d="M8 6V4a2 2 0 0 1 2-2h4a2 2 0 0 1 2 2v2"/><path d="M19 6l-1 14a2 2 0 0 1-2 2H8a2 2 0 0 1-2-2L5 6"/><path d="M10 11v6"/><path d="M14 11v6"/></symbol>
  <symbol id="i-save" viewBox="0 0 24 24"><path d="M19 21H5a2 2 0 0 1-2-2V5a2 2 0 0 1 2-2h11l5 5v11a2 2 0 0 1-2 2z"/><polyline points="17 21 17 13 7 13 7 21"/><polyline points="7 3 7 8 15 8"/></symbol>
  <symbol id="i-copy" viewBox="0 0 24 24"><rect x="8" y="8" width="13" height="13" rx="2"/><path d="M5 15H4a2 2 0 0 1-2-2V4a2 2 0 0 1 2-2h9a2 2 0 0 1 2 2v1"/></symbol>
  <symbol id="i-share" viewBox="0 0 24 24"><circle cx="18" cy="5" r="3"/><circle cx="6" cy="12" r="3"/><circle cx="18" cy="19" r="3"/><line x1="8.6" y1="13.5" x2="15.4" y2="17.5"/><line x1="15.4" y1="6.5" x2="8.6" y2="10.5"/></symbol>
  <symbol id="i-download" viewBox="0 0 24 24"><path d="M21 15v4a2 2 0 0 1-2 2H5a2 2 0 0 1-2-2v-4"/><polyline points="7 10 12 15 17 10"/><line x1="12" y1="15" x2="12" y2="3"/></symbol>
  <symbol id="i-upload" viewBox="0 0 24 24"><path d="M21 15v4a2 2 0 0 1-2 2H5a2 2 0 0 1-2-2v-4"/><polyline points="17 8 12 3 7 8"/><line x1="12" y1="3" x2="12" y2="15"/></symbol>
  <symbol id="i-filter" viewBox="0 0 24 24"><polygon points="22 4 2 4 10 13 10 19 14 21 14 13 22 4"/></symbol>
  <symbol id="i-refresh" viewBox="0 0 24 24"><polyline points="22 4 22 10 16 10"/><polyline points="2 20 2 14 8 14"/><path d="M3.5 9a9 9 0 0 1 14.85-3.36L22 10"/><path d="M20.5 15a9 9 0 0 1-14.85 3.36L2 14"/></symbol>
  <symbol id="i-print" viewBox="0 0 24 24"><polyline points="6 9 6 2 18 2 18 9"/><path d="M6 18H4a2 2 0 0 1-2-2v-5a2 2 0 0 1 2-2h16a2 2 0 0 1 2 2v5a2 2 0 0 1-2 2h-2"/><rect x="6" y="14" width="12" height="8" rx="1"/></symbol>
  <symbol id="i-send" viewBox="0 0 24 24"><line x1="22" y1="2" x2="11" y2="13"/><polygon points="22 2 15 22 11 13 2 9 22 2"/></symbol>
  <symbol id="i-more-horizontal" viewBox="0 0 24 24"><circle cx="5" cy="12" r="1.4" fill="currentColor" stroke="none"/><circle cx="12" cy="12" r="1.4" fill="currentColor" stroke="none"/><circle cx="19" cy="12" r="1.4" fill="currentColor" stroke="none"/></symbol>
  <symbol id="i-more-vertical" viewBox="0 0 24 24"><circle cx="12" cy="5" r="1.4" fill="currentColor" stroke="none"/><circle cx="12" cy="12" r="1.4" fill="currentColor" stroke="none"/><circle cx="12" cy="19" r="1.4" fill="currentColor" stroke="none"/></symbol>
  <symbol id="i-expand" viewBox="0 0 24 24"><path d="M9 3H5a2 2 0 0 0-2 2v4"/><path d="M15 3h4a2 2 0 0 1 2 2v4"/><path d="M15 21h4a2 2 0 0 0 2-2v-4"/><path d="M9 21H5a2 2 0 0 1-2-2v-4"/></symbol>
  <symbol id="i-check" viewBox="0 0 24 24"><polyline points="20 6 9 17 4 12"/></symbol>
  <symbol id="i-x" viewBox="0 0 24 24"><line x1="18" y1="6" x2="6" y2="18"/><line x1="6" y1="6" x2="18" y2="18"/></symbol>
  <symbol id="i-check-circle" viewBox="0 0 24 24"><circle cx="12" cy="12" r="10"/><polyline points="8 12 11 15 16 9"/></symbol>
  <symbol id="i-x-circle" viewBox="0 0 24 24"><circle cx="12" cy="12" r="10"/><line x1="15" y1="9" x2="9" y2="15"/><line x1="9" y1="9" x2="15" y2="15"/></symbol>
  <symbol id="i-alert" viewBox="0 0 24 24"><path d="M10.3 3.86 1.82 18a2 2 0 0 0 1.71 3h16.94a2 2 0 0 0 1.71-3L13.71 3.86a2 2 0 0 0-3.42 0z"/><line x1="12" y1="9" x2="12" y2="13"/><line x1="12" y1="17" x2="12.01" y2="17"/></symbol>
  <symbol id="i-info" viewBox="0 0 24 24"><circle cx="12" cy="12" r="10"/><line x1="12" y1="11" x2="12" y2="16"/><line x1="12" y1="8" x2="12.01" y2="8"/></symbol>
  <symbol id="i-pending" viewBox="0 0 24 24"><circle cx="12" cy="12" r="10"/><polyline points="12 7 12 12 15.5 14"/></symbol>
  <symbol id="i-in-progress" viewBox="0 0 24 24"><circle cx="12" cy="12" r="10"/><path d="M12 2a10 10 0 0 1 10 10" stroke-width="3"/></symbol>
  <symbol id="i-out-of-range" viewBox="0 0 24 24"><circle cx="12" cy="12" r="10"/><line x1="6.3" y1="6.3" x2="17.7" y2="17.7"/></symbol>
  <symbol id="i-live-dot" viewBox="0 0 24 24"><circle cx="12" cy="12" r="3.5" fill="currentColor" stroke="none"/><circle cx="12" cy="12" r="7" opacity="0.45"/><circle cx="12" cy="12" r="10.5" opacity="0.2"/></symbol>
  <symbol id="i-star" viewBox="0 0 24 24"><polygon points="12 2 15.09 8.26 22 9.27 17 14.14 18.18 21.02 12 17.77 5.82 21.02 7 14.14 2 9.27 8.91 8.26 12 2"/></symbol>
  <symbol id="i-pin" viewBox="0 0 24 24"><path d="M12 2v6"/><path d="M7 8h10l-1 5a4 4 0 0 1-3 3v6"/><path d="M11 16H7"/></symbol>
  <symbol id="i-clock" viewBox="0 0 24 24"><circle cx="12" cy="12" r="10"/><polyline points="12 6 12 12 16 14"/></symbol>
  <symbol id="i-timer" viewBox="0 0 24 24"><path d="M10 2h4"/><path d="M12 14V8"/><circle cx="12" cy="14" r="8"/></symbol>
  <symbol id="i-history" viewBox="0 0 24 24"><path d="M3 3v6h6"/><path d="M3.05 13A9 9 0 1 0 6 5.3L3 8"/><path d="M12 7v5l4 2"/></symbol>
  <symbol id="i-log" viewBox="0 0 24 24"><rect x="4" y="3" width="16" height="18" rx="2"/><path d="M8 8h8"/><path d="M8 12h8"/><path d="M8 16h5"/></symbol>
  <symbol id="i-agenda" viewBox="0 0 24 24"><rect x="5" y="3" width="14" height="18" rx="2"/><path d="M9 8h6"/><path d="M9 12h6"/><path d="M9 16h4"/><path d="M3 7h2"/><path d="M3 12h2"/><path d="M3 17h2"/></symbol>
  <symbol id="i-drop" viewBox="0 0 24 24"><path d="M12 3l5.66 8.34A7 7 0 1 1 6.34 11.34L12 3z"/></symbol>
  <symbol id="i-drop-broken" viewBox="0 0 24 24"><path d="M12 3l5.66 8.34A7 7 0 1 1 6.34 11.34L12 3z"/><path d="M9 13l3-2 3 3"/></symbol>
  <symbol id="i-cooling-tower" viewBox="0 0 24 24"><path d="M6 3h12"/><path d="M6 3c0 4-1 6-1 9s1 5 1 9"/><path d="M18 3c0 4 1 6 1 9s-1 5-1 9"/><path d="M5 21h14"/><path d="M7 10h10"/><path d="M7 14h10"/></symbol>
  <symbol id="i-tank" viewBox="0 0 24 24"><path d="M5 7l7-4 7 4v12a2 2 0 0 1-2 2H7a2 2 0 0 1-2-2V7z"/><path d="M5 13c2 1.2 4-1 7 0s5-1 7 0"/></symbol>
  <symbol id="i-faucet" viewBox="0 0 24 24"><rect x="10" y="3" width="4" height="3" rx="0.5"/><path d="M12 6v3"/><path d="M4 11h12a3 3 0 0 1 3 3v1"/><path d="M19 15a3 3 0 0 1-6 0"/><path d="M16 18v2"/></symbol>
  <symbol id="i-shower" viewBox="0 0 24 24"><path d="M14 3c-2.5 0-3 1.5-3 3v3"/><ellipse cx="14" cy="11" rx="6" ry="2"/><path d="M9 16l-1 3"/><path d="M14 17l-1 4"/><path d="M19 16l-1 3"/></symbol>
  <symbol id="i-thermometer" viewBox="0 0 24 24"><path d="M14 4a2 2 0 0 0-4 0v10.5a4 4 0 1 0 4 0V4z"/><line x1="12" y1="8" x2="12" y2="14"/><circle cx="12" cy="18" r="1.5" fill="currentColor" stroke="none"/></symbol>
  <symbol id="i-sample" viewBox="0 0 24 24"><path d="M8 2h8"/><path d="M10 2v17a2.5 2.5 0 0 0 5 0V2"/><path d="M10 12c1.5 1 3-.5 5 .5"/></symbol>
  <symbol id="i-flask" viewBox="0 0 24 24"><path d="M9 2h6"/><path d="M10 2v6L5 18a2 2 0 0 0 1.8 3h10.4A2 2 0 0 0 19 18l-5-10V2"/><path d="M7.5 15h9"/></symbol>
  <symbol id="i-microbe" viewBox="0 0 24 24"><ellipse cx="12" cy="12" rx="6" ry="4.5" transform="rotate(-25 12 12)"/><path d="M5 7l-2-2"/><path d="M3 11h-1"/><path d="M19 17l2 2"/><path d="M21 13h1"/><path d="M8 17l-1.5 2"/><path d="M17 6l1.5-2"/><circle cx="10.5" cy="11" r="0.7" fill="currentColor" stroke="none"/><circle cx="13.5" cy="13" r="0.7" fill="currentColor" stroke="none"/></symbol>
  <symbol id="i-valve" viewBox="0 0 24 24"><circle cx="12" cy="12" r="4.5"/><path d="M2 12h5"/><path d="M17 12h5"/><path d="M12 7.5V4"/><path d="M8.5 4h7"/></symbol>
  <symbol id="i-pipe" viewBox="0 0 24 24"><path d="M2 8h6a3 3 0 0 1 3 3v2a3 3 0 0 0 3 3h8"/><path d="M19 14l3 2-3 2"/><circle cx="6" cy="8" r="1" fill="currentColor" stroke="none"/><circle cx="14" cy="16" r="1" fill="currentColor" stroke="none"/></symbol>
  <symbol id="i-aerosol" viewBox="0 0 24 24"><rect x="9" y="3" width="6" height="3" rx="0.5"/><path d="M11 6v2"/><path d="M13 6v2"/><rect x="7" y="8" width="10" height="13" rx="2"/><path d="M7 12h10"/><path d="M10 15h4"/></symbol>
  <symbol id="i-probe" viewBox="0 0 24 24"><rect x="6" y="2" width="12" height="9" rx="1.5"/><path d="M9 6h6"/><path d="M12 11v8"/><path d="M9 21h6"/></symbol>
  <symbol id="i-chlorination" viewBox="0 0 24 24"><path d="M12 3l5.66 8.34A7 7 0 1 1 6.34 11.34L12 3z"/><path d="M10 14h4"/><path d="M12 12v4"/></symbol>
  <symbol id="i-ph" viewBox="0 0 24 24"><rect x="9" y="2" width="6" height="20" rx="1"/><path d="M9 8h6"/><path d="M9 14h6"/><path d="M9 18h6"/></symbol>
  <symbol id="i-hospital" viewBox="0 0 24 24"><path d="M3 21h18"/><path d="M5 21V8l7-4 7 4v13"/><path d="M12 9v4"/><path d="M10 11h4"/><path d="M9 21v-4h6v4"/></symbol>
  <symbol id="i-building" viewBox="0 0 24 24"><rect x="5" y="3" width="14" height="18" rx="1"/><path d="M8 8h.01"/><path d="M12 8h.01"/><path d="M16 8h.01"/><path d="M8 12h.01"/><path d="M12 12h.01"/><path d="M16 12h.01"/><path d="M10 21v-4h4v4"/></symbol>
  <symbol id="i-plant" viewBox="0 0 24 24"><rect x="3" y="3" width="18" height="18" rx="1"/><path d="M3 12h7v9"/><path d="M10 12V3"/><path d="M14 3v9h7"/></symbol>
  <symbol id="i-location" viewBox="0 0 24 24"><path d="M12 22s-7-6.5-7-12a7 7 0 1 1 14 0c0 5.5-7 12-7 12z"/><circle cx="12" cy="10" r="2.5"/></symbol>
  <symbol id="i-map" viewBox="0 0 24 24"><polygon points="3 6 9 3 15 6 21 3 21 18 15 21 9 18 3 21 3 6"/><line x1="9" y1="3" x2="9" y2="18"/><line x1="15" y1="6" x2="15" y2="21"/></symbol>
  <symbol id="i-route" viewBox="0 0 24 24"><circle cx="5" cy="5" r="2.5"/><circle cx="19" cy="19" r="2.5"/><path d="M7.5 5h7a4 4 0 0 1 0 8h-5a4 4 0 0 0 0 8h7"/></symbol>
  <symbol id="i-user" viewBox="0 0 24 24"><circle cx="12" cy="8" r="4"/><path d="M4 21v-1a6 6 0 0 1 6-6h4a6 6 0 0 1 6 6v1"/></symbol>
  <symbol id="i-user-plus" viewBox="0 0 24 24"><circle cx="9" cy="8" r="4"/><path d="M2 21v-1a6 6 0 0 1 6-6h2a6 6 0 0 1 6 6v1"/><path d="M20 8v6"/><path d="M17 11h6"/></symbol>
  <symbol id="i-user-check" viewBox="0 0 24 24"><circle cx="9" cy="8" r="4"/><path d="M2 21v-1a6 6 0 0 1 6-6h2a6 6 0 0 1 6 6v1"/><polyline points="17 10 20 13 23 9"/></symbol>
  <symbol id="i-lock" viewBox="0 0 24 24"><rect x="4" y="11" width="16" height="10" rx="2"/><path d="M8 11V7a4 4 0 0 1 8 0v4"/></symbol>
  <symbol id="i-lock-open" viewBox="0 0 24 24"><rect x="4" y="11" width="16" height="10" rx="2"/><path d="M8 11V7a4 4 0 0 1 7-2.6"/></symbol>
  <symbol id="i-eye" viewBox="0 0 24 24"><path d="M2 12s4-7 10-7 10 7 10 7-4 7-10 7S2 12 2 12z"/><circle cx="12" cy="12" r="3"/></symbol>
  <symbol id="i-eye-off" viewBox="0 0 24 24"><path d="M3 3l18 18"/><path d="M10.6 5.1a10 10 0 0 1 1.4-.1c6 0 10 7 10 7a17 17 0 0 1-2.6 3.4"/><path d="M6.6 6.6A17 17 0 0 0 2 12s4 7 10 7a10 10 0 0 0 4.4-1"/><path d="M9.9 9.9a3 3 0 0 0 4.2 4.2"/></symbol>
  <symbol id="i-logout" viewBox="0 0 24 24"><path d="M9 21H5a2 2 0 0 1-2-2V5a2 2 0 0 1 2-2h4"/><polyline points="16 17 21 12 16 7"/><line x1="21" y1="12" x2="9" y2="12"/></symbol>
  <symbol id="i-login" viewBox="0 0 24 24"><path d="M15 3h4a2 2 0 0 1 2 2v14a2 2 0 0 1-2 2h-4"/><polyline points="10 17 15 12 10 7"/><line x1="15" y1="12" x2="3" y2="12"/></symbol>
  <symbol id="i-help" viewBox="0 0 24 24"><circle cx="12" cy="12" r="10"/><path d="M9.1 9a3 3 0 0 1 5.83 1c0 2-3 3-3 3"/><line x1="12" y1="17" x2="12.01" y2="17"/></symbol>
  <symbol id="i-light-mode" viewBox="0 0 24 24"><circle cx="12" cy="12" r="4"/><path d="M12 3v1.5"/><path d="M12 19.5V21"/><path d="M5.6 5.6l1.1 1.1"/><path d="M17.3 17.3l1.1 1.1"/><path d="M3 12h1.5"/><path d="M19.5 12H21"/><path d="M5.6 18.4l1.1-1.1"/><path d="M17.3 6.7l1.1-1.1"/></symbol>
  <symbol id="i-dark-mode" viewBox="0 0 24 24"><path d="M21 12.79A9 9 0 1 1 11.21 3 7 7 0 0 0 21 12.79z"/></symbol>
  <symbol id="i-language" viewBox="0 0 24 24"><circle cx="12" cy="12" r="10"/><line x1="2" y1="12" x2="22" y2="12"/><path d="M12 2a15 15 0 0 1 4 10 15 15 0 0 1-4 10 15 15 0 0 1-4-10 15 15 0 0 1 4-10z"/></symbol>
  <symbol id="i-folder" viewBox="0 0 24 24"><path d="M20 20a2 2 0 0 0 2-2V8a2 2 0 0 0-2-2h-7.9a2 2 0 0 1-1.69-.9L9.6 3.9A2 2 0 0 0 7.93 3H4a2 2 0 0 0-2 2v13a2 2 0 0 0 2 2Z"/></symbol>
  <symbol id="i-folder-plus" viewBox="0 0 24 24"><path d="M20 20a2 2 0 0 0 2-2V8a2 2 0 0 0-2-2h-7.9a2 2 0 0 1-1.69-.9L9.6 3.9A2 2 0 0 0 7.93 3H4a2 2 0 0 0-2 2v13a2 2 0 0 0 2 2Z"/><path d="M12 10v6"/><path d="M9 13h6"/></symbol>
  <symbol id="i-file-check" viewBox="0 0 24 24"><path d="M15 2H6a2 2 0 0 0-2 2v16a2 2 0 0 0 2 2h12a2 2 0 0 0 2-2V7Z"/><path d="M14 2v4a2 2 0 0 0 2 2h4"/><path d="m9 15 2 2 4-4"/></symbol>
  <symbol id="i-image" viewBox="0 0 24 24"><rect x="3" y="3" width="18" height="18" rx="2" ry="2"/><circle cx="8.5" cy="8.5" r="1.5"/><polyline points="21 15 16 10 5 21"/></symbol>
  <symbol id="i-layers" viewBox="0 0 24 24"><path d="M12 2L2 7L12 12L22 7L12 2Z"/><path d="M2 17L12 22L22 17"/><path d="M2 12L12 17L22 12"/></symbol>
  <symbol id="i-link" viewBox="0 0 24 24"><path d="M10 13a5 5 0 0 0 7.54.54l3-3a5 5 0 0 0-7.07-7.07l-1.72 1.71"/><path d="M14 11a5 5 0 0 0-7.54-.54l-3 3a5 5 0 0 0 7.07 7.07l1.71-1.71"/></symbol>
  <symbol id="i-save" viewBox="0 0 24 24"><path d="M19 21H5a2 2 0 0 1-2-2V5a2 2 0 0 1 2-2h11l5 5v11a2 2 0 0 1-2 2Z"/><path d="M17 21V13H7V21"/><path d="M7 3V8H15"/></symbol>
</svg>
